<?xml version="1.0" standalone="no"?>
<!DOCTYPE svg PUBLIC "-//W3C//DTD SVG 20010904//EN"
 "http://www.w3.org/TR/2001/REC-SVG-20010904/DTD/svg10.dtd">
<svg version="1.0" xmlns="http://www.w3.org/2000/svg"
 width="311.000000pt" height="311.000000pt" viewBox="0 0 311.000000 311.000000"
 preserveAspectRatio="xMidYMid meet">
<metadata>
Created by potrace 1.14, written by Peter Selinger 2001-2017
</metadata>
<g transform="translate(0.000000,311.000000) scale(0.100000,-0.100000)"
fill="#000000" stroke="none">
<path d="M1400 2344 c-154 -20 -323 -88 -403 -162 -61 -58 -87 -108 -87 -167
0 -59 26 -109 87 -167 181 -168 592 -218 894 -108 405 148 350 463 -101 580
-84 21 -302 35 -390 24z m290 -39 c365 -64 498 -303 267 -479 -42 -32 -51 -33
-43 -1 8 32 5 31 -35 -6 -128 -119 -407 -144 -642 -55 -254 96 -313 293 -128
433 51 40 64 42 51 8 -13 -34 -5 -32 43 11 100 91 285 124 487 89z"/>
<path d="M1634 2216 c-22 -7 -104 -45 -181 -84 -147 -73 -217 -93 -263 -75
-14 6 -34 14 -44 18 -18 8 -19 4 -12 -65 13 -126 55 -177 164 -200 78 -17 143
1 313 87 126 64 158 76 212 80 51 4 70 2 92 -13 l28 -18 -5 80 c-6 103 -28
142 -100 178 -58 29 -134 34 -204 12z"/>
<path d="M385 1584 c-11 -2 -45 -9 -75 -15 -111 -23 -199 -84 -236 -164 -57
-122 -4 -231 137 -278 45 -15 170 -38 319 -57 144 -20 177 -39 151 -88 -19
-35 -69 -47 -191 -46 -132 0 -199 14 -288 57 -34 16 -65 28 -68 25 -3 -3 -32
-48 -64 -99 -53 -85 -63 -121 -25 -89 12 10 25 8 68 -10 98 -43 187 -61 328
-67 109 -5 152 -2 215 12 187 41 284 127 284 250 0 145 -105 207 -413 245
-123 15 -188 28 -204 41 -7 6 -13 24 -13 40 0 44 37 62 137 67 108 6 184 -11
228 -49 l34 -30 115 47 c63 26 113 51 110 56 -3 5 -14 6 -23 3 -11 -3 -25 3
-37 16 -72 80 -201 128 -359 134 -60 2 -119 2 -130 -1z"/>
<path d="M1030 1560 c0 -5 18 -10 40 -10 l40 0 0 -380 0 -380 -40 0 c-29 0
-40 -4 -40 -15 0 -13 30 -15 210 -15 180 0 210 2 210 15 0 11 -11 15 -40 15
l-41 0 3 108 3 107 200 5 c189 5 203 6 255 31 74 35 116 72 145 129 35 69 40
117 21 185 -30 100 -122 178 -244 204 -69 14 -722 15 -722 1z m681 -208 c24
-22 31 -36 31 -65 0 -79 -41 -97 -222 -97 l-140 0 0 95 0 95 150 0 c150 0 150
0 181 -28z"/>
<path d="M2230 1560 c0 -5 18 -10 39 -10 68 0 76 22 -122 -360 -44 -85 -109
-210 -144 -277 l-64 -123 -40 0 c-28 0 -39 -4 -36 -12 3 -10 54 -13 212 -13
158 0 209 3 213 13 2 8 -7 12 -27 12 -37 0 -40 19 -11 68 l20 32 214 0 213 0
21 -47 21 -48 -35 -3 c-22 -2 -34 -8 -34 -18 0 -12 32 -14 213 -12 135 2 211
7 210 13 -1 6 -19 12 -38 15 -36 5 -37 6 -147 220 -61 118 -150 292 -199 385
l-88 170 -195 3 c-129 1 -196 -1 -196 -8z m333 -397 c20 -45 37 -85 37 -88 0
-3 -54 -5 -120 -5 -66 0 -120 2 -120 4 0 3 27 63 61 133 l61 128 22 -45 c12
-25 38 -82 59 -127z"/>
</g>
</svg>
